<?xml version="1.0" encoding="UTF-8" standalone="no"?>
<!-- Created with Inkscape (http://www.inkscape.org/) -->

<svg
   xmlns:dc="http://purl.org/dc/elements/1.1/"
   xmlns:cc="http://creativecommons.org/ns#"
   xmlns:rdf="http://www.w3.org/1999/02/22-rdf-syntax-ns#"
   xmlns:svg="http://www.w3.org/2000/svg"
   xmlns="http://www.w3.org/2000/svg"
   xmlns:sodipodi="http://sodipodi.sourceforge.net/DTD/sodipodi-0.dtd"
   xmlns:inkscape="http://www.inkscape.org/namespaces/inkscape"
   width="358"
   height="358"
   id="svg2"
   version="1.1"
   inkscape:version="0.48.5 r10040"
   sodipodi:docname="drawable.svg"
   inkscape:export-filename="/home/edh/Google Drive/Schülervertretung, 2013-2015/Android Application/ic_launcher(36x36).png"
   inkscape:export-xdpi="9.0502796"
   inkscape:export-ydpi="9.0502796">
  <defs
     id="defs4" />
  <sodipodi:namedview
     id="base"
     pagecolor="#ffffff"
     bordercolor="#666666"
     borderopacity="1.0"
     inkscape:pageopacity="0.0"
     inkscape:pageshadow="2"
     inkscape:zoom="2"
     inkscape:cx="185.86568"
     inkscape:cy="177.24838"
     inkscape:document-units="px"
     inkscape:current-layer="layer1"
     showgrid="false"
     inkscape:window-width="1920"
     inkscape:window-height="955"
     inkscape:window-x="0"
     inkscape:window-y="25"
     inkscape:window-maximized="1" />
  <metadata
     id="metadata7">
    <rdf:RDF>
      <cc:Work
         rdf:about="">
        <dc:format>image/svg+xml</dc:format>
        <dc:type
           rdf:resource="http://purl.org/dc/dcmitype/StillImage" />
        <dc:title />
      </cc:Work>
    </rdf:RDF>
  </metadata>
  <g
     inkscape:label="Layer 1"
     inkscape:groupmode="layer"
     id="layer1"
     transform="translate(0,-694.36218)">
    <path
       sodipodi:type="arc"
       style="fill:#0053a8;fill-opacity:1"
       id="path2985"
       sodipodi:cx="408.57144"
       sodipodi:cy="506.64789"
       sodipodi:rx="171.42857"
       sodipodi:ry="160"
       d="m 580.00002,506.64789 a 171.42857,160 0 1 1 -342.85715,0 171.42857,160 0 1 1 342.85715,0 z"
       transform="matrix(1,0,0,1.0357143,-229.75736,347.2055)" />
    <path
       style="fill:#ffffff;fill-opacity:1;stroke:#000000;stroke-width:0;stroke-miterlimit:4;stroke-opacity:1;stroke-dasharray:none"
       id="path3015"
       d="m 191.30715,833.23767 c 0.16356,2.7942 0.42819,5.58054 0.5926,8.37488 0.18243,1.90534 0.12766,3.7731 -0.21381,5.65111 -0.29636,1.44496 -0.38085,2.91842 -0.43426,4.38946 -0.0434,1.6442 -0.0387,3.28921 -0.0382,4.93386 0.32605,1.389 0.55306,2.79003 0.68703,4.21111 0.1288,1.65952 0.1362,3.32533 0.14476,4.98899 0.0902,1.65855 -0.0383,3.27633 -0.35977,4.90019 -0.30726,1.44146 -0.38434,2.91523 -0.43609,4.38459 -0.0419,1.64849 -0.0369,3.29771 -0.0361,4.94661 0.002,1.67529 0.003,3.35057 0.005,5.02587 -0.1534,1.47481 0.27402,2.86555 0.50954,4.30178 0.23654,1.61894 0.2756,3.25755 0.30495,4.89113 -0.11561,1.50738 -0.48214,2.97376 -0.6511,4.4756 -0.14547,1.57793 -0.15381,3.16434 -0.16493,4.7478 -0.006,1.67108 -0.002,3.34219 -3.5e-4,5.01329 0.002,1.6749 0.002,3.34982 0.002,5.02473 0.0868,1.65524 -0.0387,3.26986 -0.3579,4.89093 -0.30565,1.44116 -0.38229,2.91435 -0.43381,4.38313 -0.0416,1.64851 -0.0368,3.29776 -0.0359,4.94667 0.21716,1.26722 0.49151,2.48357 0.92902,3.68312 0.48744,1.50824 0.59772,3.09725 0.67704,4.67166 0.0421,1.53759 -0.0302,3.04785 0.30087,4.55227 0.36175,1.54629 0.4992,3.09742 0.30084,4.67323 -0.27707,1.418 -0.41626,2.85272 -0.49352,4.29445 0.003,1.51796 -0.4288,2.98122 -0.65328,4.47135 -0.0265,0.23788 -0.053,0.47575 -0.0796,0.71364 0,0 -24.4684,-0.25708 -24.4684,-0.25708 l 0,0 c 0.025,-0.26817 0.05,-0.53636 0.075,-0.80453 0.18182,-1.4284 0.60019,-2.81351 0.66594,-4.24729 0.0679,-1.52146 0.16905,-3.04468 0.46123,-4.5416 0.22946,-1.29546 0.001,-2.5411 -0.28675,-3.81799 -0.27882,-1.62331 -0.22667,-3.25285 -0.28373,-4.8951 -0.0835,-1.34946 -0.20944,-2.70216 -0.69957,-3.97307 -0.47613,-1.46024 -0.74505,-2.99269 -0.89514,-4.5215 -0.001,-1.67653 -0.006,-3.3533 0.0291,-5.02954 0.0471,-1.60557 0.11456,-3.21691 0.41186,-4.79862 0.29349,-1.46499 0.52805,-2.88379 0.38667,-4.39371 -2.5e-4,-1.67415 -6.6e-4,-3.34831 -0.002,-5.02247 -0.002,-1.67727 -0.006,-3.35454 -0.001,-5.0318 0.009,-1.66479 0.0177,-3.33174 0.14794,-4.9923 0.13309,-1.40451 0.35855,-2.78897 0.66501,-4.1651 -0.0328,-1.5066 -0.0733,-3.01945 -0.32724,-4.5078 -0.28607,-1.56844 -0.61393,-3.12499 -0.48283,-4.73395 -8.4e-4,-1.6752 -0.002,-3.35043 -0.005,-5.02564 -0.001,-1.67664 -0.006,-3.35352 0.0292,-5.02987 0.0473,-1.60685 0.11538,-3.21947 0.41443,-4.80219 0.29446,-1.46238 0.53341,-2.87814 0.38688,-4.38594 -0.0105,-1.58246 -0.0179,-3.16788 -0.16182,-4.74493 -0.16801,-1.50096 -0.53293,-2.96474 -0.66869,-4.4688 -0.001,-1.67312 -0.006,-3.34649 0.0302,-5.0193 0.0485,-1.59972 0.11959,-3.20472 0.41869,-4.78014 0.33336,-1.68507 0.51624,-3.32815 0.33508,-5.0579 -0.0957,-2.74724 -0.23432,-5.50165 -0.67041,-8.21821 0,0 24.43015,-0.27508 24.43015,-0.27508 z"
       inkscape:connector-curvature="0" />
    <path
       style="fill:#ffffff;fill-opacity:1;stroke:#000000;stroke-width:0;stroke-miterlimit:4;stroke-opacity:1;stroke-dasharray:none"
       id="path3017"
       d="m 189.87116,800.49446 c -1.58514,2.29018 -2.99757,4.69632 -4.58332,6.9865 -0.88499,1.20582 -1.75879,2.45688 -2.84425,3.48659 -0.81008,0.83983 -1.56853,1.75465 -2.45864,2.50985 -0.72799,1.05327 -1.8895,1.56952 -2.81817,2.38618 -0.91373,0.66956 -1.78772,1.44105 -2.54743,2.29312 -1.28731,1.10084 -2.51198,2.27924 -3.81484,3.36063 -1.30995,1.10646 -2.11851,2.66305 -3.13397,4.02678 -0.76686,1.03663 -1.54435,2.10183 -2.49152,2.9765 -0.81067,0.84288 -1.56976,1.75964 -2.45875,2.52051 -0.82552,0.82622 -1.58032,1.74139 -2.46624,2.50328 -0.82547,0.82886 -1.58059,1.74623 -2.46729,2.50996 -0.82523,0.82928 -1.58045,1.74682 -2.46725,2.51065 -0.82522,0.82927 -1.58043,1.74678 -2.46723,2.51059 -0.76116,0.89833 -1.44649,1.88748 -2.13133,2.85594 -0.84522,0.79881 -1.32914,1.87979 -2.06081,2.7745 -0.72874,0.957 -1.488,1.92896 -2.38452,2.73138 -0.75453,0.9091 -1.44463,1.89547 -2.13254,2.86585 -0.75765,0.93451 -1.63729,1.75052 -2.41545,2.66448 -0.85624,0.70102 -1.47679,1.66309 -1.97493,2.65079 -0.383,0.63507 -0.20345,0.31897 -0.54058,0.94718 0,0 -24.48274,-1.02868 -24.48274,-1.02868 l 0,0 c 0.32775,-0.90947 0.14131,-0.48062 0.54971,-1.29082 0.77463,-1.02706 1.13944,-2.35492 2.0165,-3.32997 0.9977,-0.70109 -0.20009,0.20607 0.81661,-0.82824 0.53259,-0.5418 1.16739,-0.98786 1.58431,-1.64857 0.92018,-0.70825 1.55129,-1.84184 2.13063,-2.83839 0.68538,-0.9184 1.5923,-1.64503 2.36881,-2.47408 0.67057,-1.03602 1.52832,-1.92457 2.07821,-3.05606 0.92166,-0.71136 1.55049,-1.84987 2.13086,-2.8493 0.70181,-0.94075 1.63169,-1.70598 2.46723,-2.51058 0.70181,-0.94077 1.63172,-1.70602 2.46725,-2.51065 0.70182,-0.94078 1.6317,-1.70614 2.46729,-2.51072 0.70104,-0.9397 1.63002,-1.70484 2.46599,-2.50673 0.69781,-0.93396 1.62422,-1.69172 2.45815,-2.48612 0.7388,-0.98587 1.72607,-1.74652 2.51468,-2.69775 1.03203,-1.54691 2.21314,-2.99258 3.21422,-4.56859 1.18553,-1.17346 2.52778,-2.18786 3.72996,-3.35425 1.03475,-0.7389 -0.236,0.23323 0.83366,-0.84793 0.56811,-0.57422 1.23854,-1.03603 1.73661,-1.69165 0.68789,-0.42758 1.19951,-1.06276 1.88667,-1.48604 0.14033,-0.0864 0.32421,-0.0692 0.47209,-0.14139 0.15254,-0.0745 0.27858,-0.1955 0.41787,-0.29325 0.69709,-0.93399 1.62643,-1.68855 2.46469,-2.4787 0.8827,-1.14438 2.06546,-2.02851 2.94872,-3.1936 1.58414,-2.23056 3.25803,-4.39532 4.53759,-6.83663 0,0 24.38349,1.38743 24.38349,1.38743 z"
       inkscape:connector-curvature="0" />
    <path
       style="fill:#ffffff;fill-opacity:1;stroke:#000000;stroke-width:0;stroke-miterlimit:4;stroke-opacity:1;stroke-dasharray:none"
       id="path3019"
       d="m 188.30172,797.55083 c 1.0521,2.1827 2.5246,4.07456 3.90667,6.03444 0.86263,1.09796 1.99466,1.938 2.83814,3.03421 0.14202,0.0991 0.27053,0.22212 0.42606,0.29736 0.14886,0.072 0.33362,0.0531 0.47534,0.13872 0.68713,0.41523 1.1974,1.0446 1.88306,1.46669 0.55015,0.47756 1.08476,1.36232 1.73249,1.68568 0.97939,0.48894 -0.0206,-0.31635 0.95823,0.59694 1.27517,0.68902 1.94682,2.13763 2.93947,3.1561 0.83058,0.98416 1.65486,2.19571 2.68487,2.96516 0.75406,0.92834 1.59397,1.81705 2.68224,2.35009 0.64785,0.64774 1.42703,1.11538 2.09408,1.73266 1.31917,1.22072 -0.30994,0.0107 0.9259,0.88309 0.47882,0.67088 1.14443,1.1441 1.70859,1.72008 1.03816,1.05993 -0.1848,0.12202 0.82577,0.84334 0.44734,0.6626 1.09549,1.11872 1.64183,1.67559 1.03006,1.0499 -0.18513,0.12318 0.821,0.83642 0.5949,1.12623 1.46384,2.03519 2.14487,3.08903 1.00458,0.77531 -0.30082,-0.29331 0.7623,0.83211 0.11433,0.121 0.28815,0.17143 0.40365,0.29123 0.46345,0.48068 0.62831,1.11112 1.07292,1.60835 0.58023,0.8637 1.37396,1.97071 2.21516,2.57601 0.57923,1.12398 1.44542,2.01969 2.12229,3.06323 0.73773,0.48247 1.06657,1.3554 1.55388,2.05393 0.11789,0.16899 0.27839,0.30254 0.4176,0.45381 0.13195,0.20924 0.26389,0.41848 0.39584,0.62773 0.77318,0.9472 1.73895,1.71362 2.4693,2.69204 0.83504,0.80355 1.76653,1.56292 2.46866,2.50149 0.83638,0.80233 1.76594,1.56748 2.46733,2.50755 0.8356,0.80446 1.76545,1.5698 2.46722,2.51055 0.40378,0.98125 1.18201,1.68107 1.74409,2.55081 0,0 -24.4637,1.58826 -24.4637,1.58826 l 0,0 c -0.61273,-0.73434 -1.05488,-1.60789 -1.72764,-2.28507 -0.88667,-0.76365 -1.64177,-1.68092 -2.46721,-2.50967 -0.8865,-0.76229 -1.64182,-1.67807 -2.4673,-2.50535 -0.89397,-0.76841 -1.65722,-1.69365 -2.46859,-2.548 -0.93331,-0.88019 -1.70528,-1.93864 -2.46499,-2.97262 -0.79414,-1.02885 -1.55189,-2.08377 -2.38813,-3.07601 -0.72874,-0.87568 -1.21553,-1.94663 -2.09746,-2.6852 -0.75576,-0.97248 -1.57315,-1.88998 -2.23891,-2.934 -0.6387,-1.0075 -1.59467,-1.74311 -2.24002,-2.75304 -0.72067,-0.8639 -1.20131,-1.93316 -2.1127,-2.61847 -0.76666,-0.88789 -1.63459,-1.6837 -2.46242,-2.50918 -0.76969,-0.88484 -1.64441,-1.68188 -2.51755,-2.45574 -0.90067,-0.90521 -1.95513,-1.64096 -2.97926,-2.39342 -0.957,-0.87904 -1.8385,-1.81647 -2.73754,-2.75115 -0.86712,-1.06397 -1.80856,-2.06366 -2.65622,-3.14644 -0.8461,-1.06518 -1.81856,-1.92718 -2.94808,-2.65975 -1.01255,-0.59948 -1.6649,-1.66002 -2.68871,-2.25195 -0.93417,-0.81621 -2.10379,-1.3298 -2.82066,-2.40126 -1.05251,-0.98099 -1.9082,-2.17535 -2.75885,-3.33567 -1.4331,-2.06381 -2.68696,-4.24506 -3.95124,-6.4183 0,0 24.40833,-1.15241 24.40833,-1.15241 z"
       inkscape:connector-curvature="0" />
    <path
       style="fill:#ffffff;fill-opacity:1;stroke:#000000;stroke-width:0;stroke-miterlimit:4;stroke-opacity:1;stroke-dasharray:none"
       id="path3023"
       d="m 165.4042,799.02318 c 0.45499,-0.46359 0.87153,-0.96508 1.32998,-1.4249 0.25779,-0.24674 0.55662,-0.44503 0.80906,-0.69606 0.21651,-0.1874 0.43245,-0.38231 0.62159,-0.59948 0.22772,-0.16953 0.34662,-0.43647 0.52576,-0.65165 0.1749,-0.25391 0.39669,-0.46661 0.59633,-0.70016 0.19657,-0.27078 0.38347,-0.55412 0.61604,-0.79469 0.20714,-0.24294 0.4264,-0.47416 0.64831,-0.70394 0.23467,-0.16613 0.48128,-0.31887 0.68764,-0.52159 0.21904,-0.18531 0.43481,-0.38268 0.62463,-0.6003 0.20735,-0.20623 0.4244,-0.40547 0.6162,-0.62759 0.23592,-0.18841 0.37634,-0.46536 0.55825,-0.70378 0.25515,-0.31968 0.61945,-0.32841 0.97728,-0.41278 0.35907,-0.12238 0.73132,-0.17707 1.10711,-0.20815 2.25006,-0.12294 0.86069,-0.0512 6.4272,0.0379 0.0605,9.6e-4 0.11503,0.038 0.1736,0.0536 0.17193,0.0453 0.34582,0.0615 0.52212,0.0765 0.3906,-5.3e-4 0.75494,0.013 1.07503,0.25987 0.20312,0.0687 0.25975,0.23925 0.3718,0.40026 0.10758,0.15455 0.18706,0.26211 0.25916,0.44388 0.18644,0.23509 0.22422,0.55222 0.44194,0.76318 0.26332,0.0992 0.3623,0.42823 0.58835,0.61014 0.0313,0.0454 0.0566,0.0958 0.094,0.13635 0.0284,0.0307 0.0718,0.0443 0.10049,0.0748 0.13645,0.14451 0.07,0.13173 0.1795,0.30631 0.0173,0.0278 0.17227,0.18811 0.18873,0.20544 0.2714,0.16018 -0.0335,-0.0358 0.24511,0.20562 0.27239,0.236 0.28716,0.24023 0.42852,0.59564 0.0836,0.28281 0.19112,0.60549 0.42017,0.79964 0.11433,0.12679 0.22036,0.32569 0.38012,0.40162 0.23957,0.11386 -0.007,-0.0812 0.23432,0.14152 0.25052,0.12464 -0.008,-0.0222 0.23727,0.18681 0.0349,0.0296 0.0828,0.0411 0.11678,0.0719 0.12854,0.11659 0.17806,0.28207 0.2953,0.40874 0.1816,0.26625 0.26134,0.5992 0.44724,0.8592 0.1559,0.25585 0.32465,0.50307 0.46848,0.77007 0,0 -6.11865,0.33635 -6.11865,0.33635 l 0,0 c -0.1662,-0.25575 -0.31946,-0.52034 -0.46906,-0.7865 -0.11929,-0.2628 -0.25423,-0.52792 -0.4419,-0.74662 -0.1683,-0.22933 -0.42612,-0.34895 -0.63849,-0.5318 -0.26474,-0.17172 -0.43213,-0.45845 -0.62662,-0.70269 -0.16387,-0.29156 -0.30101,-0.59157 -0.42184,-0.904 -0.19461,-0.24782 -0.48544,-0.40383 -0.66558,-0.66788 -0.17919,-0.24031 -0.34963,-0.48032 -0.56522,-0.69002 -0.18473,-0.24898 -0.41457,-0.44768 -0.59367,-0.69763 -0.14858,-0.28207 -0.28523,-0.56911 -0.44506,-0.84479 -0.17799,-0.23581 -0.30896,-0.34434 -0.59524,-0.4198 -0.34976,-0.019 -0.70035,-0.0366 -1.0472,-0.0971 -0.17518,-0.0347 -0.35164,-0.0828 -0.52877,-0.10568 -0.055,-0.007 -0.22159,-0.0119 -0.16609,-0.0119 12.32732,-0.013 7.6114,6.9e-4 5.67208,0.006 -0.3608,0.004 -0.72617,-9.6e-4 -1.08073,0.0761 -0.1134,0.035 -0.2182,0.0985 -0.33417,0.12291 -0.19509,0.0412 -0.41235,-0.0347 -0.60822,0.0214 -0.29271,0.10272 -0.36754,0.44961 -0.55559,0.67341 -0.25162,0.17851 0.0522,-0.0534 -0.20539,0.2093 -0.13676,0.13941 -0.29893,0.25368 -0.4109,0.41956 -0.25329,0.18084 0.0538,-0.0547 -0.20629,0.21084 -0.13928,0.14217 -0.3039,0.25834 -0.42143,0.42444 -0.30309,0.20624 0.10224,-0.0851 -0.22125,0.21014 -0.14917,0.13612 -0.32446,0.2317 -0.47247,0.37087 -0.28316,0.0854 -0.40366,0.36446 -0.63519,0.53061 -0.18872,0.25833 -0.4345,0.46732 -0.61734,0.73317 -0.15502,0.27599 -0.35596,0.51851 -0.59073,0.72123 -0.16971,0.26305 -0.38626,0.48991 -0.53371,0.7715 -0.25116,0.17809 0.0536,-0.0543 -0.20443,0.20888 -0.13893,0.14169 -0.30329,0.25718 -0.42173,0.42201 -0.31462,0.21606 0.10677,-0.0877 -0.23392,0.21684 -0.19109,0.17093 -0.41615,0.29919 -0.60195,0.47943 -0.51766,0.34661 -0.87802,0.87782 -1.31518,1.31693 0,0 -6.09149,-0.43999 -6.09149,-0.43999 z"
       inkscape:connector-curvature="0" />
    <path
       style="fill:#ffffff;fill-opacity:1;stroke:#000000;stroke-width:0;stroke-miterlimit:4;stroke-opacity:1;stroke-dasharray:none"
       id="path3025"
       d="m 180.70389,793.82571 c 0.28566,0.55595 0.62651,1.08357 0.88869,1.65128 0.2031,0.42366 0.33313,0.86448 0.45095,1.32038 0.0956,0.43099 0.26181,0.84254 0.40774,1.25815 0.1724,0.33354 0.30287,0.70647 0.5215,1.01183 0.16934,0.27307 0.25245,0.60625 0.44014,0.86522 0.1858,0.37497 -0.0456,-0.10616 0.13343,0.31789 0.0148,0.035 0.0265,0.0743 0.0537,0.10052 0.0105,0.009 0.055,-0.009 0.0411,-0.009 -6.17956,0.10853 -5.80041,2.17214 -6.16274,0.0231 -0.16144,-0.23134 -0.20955,-0.52696 -0.37474,-0.76147 -0.17633,-0.28569 -0.27131,-0.62905 -0.4667,-0.90032 -0.0891,-0.37204 -0.26659,-0.65402 -0.44976,-0.97476 -0.14321,-0.29584 -0.20804,-0.64417 -0.389,-0.91888 -0.14498,-0.26836 -0.22267,-0.58696 -0.40114,-0.83429 -0.16805,-0.30846 -0.31606,-0.62365 -0.46784,-0.93991 -0.11986,-0.30328 -0.28196,-0.58508 -0.42571,-0.87708 -0.0206,-0.0579 -0.0349,-0.11862 -0.0619,-0.17376 -0.22532,-0.45972 0.1013,0.34115 -0.14402,-0.24543 -0.0756,-0.18081 -0.11177,-0.36938 -0.14697,-0.56131 -0.0793,-0.39479 0.0174,-0.76398 0.17156,-1.12328 -0.001,-0.12423 0.15222,-0.25073 0.17904,-0.35873 0.0195,-0.0788 -0.0431,-0.24581 0.0365,-0.24087 6.21454,0.38484 6.68582,-1.36307 6.05574,0.75761 -0.10852,0.29201 -0.29877,0.5545 -0.52157,0.76791 -0.23038,0.22312 -0.42185,0.47657 -0.622,0.72729 -0.20191,0.25024 -0.3801,0.51415 -0.55314,0.78601 -0.16689,0.29189 -0.35725,0.56536 -0.55695,0.83424 -0.18668,0.30703 -0.44171,0.57651 -0.71507,0.8061 -0.19486,0.20421 -0.35652,0.44188 -0.53113,0.66557 -0.15879,0.2505 -0.30005,0.50984 -0.43799,0.77285 -0.15919,0.31299 -0.28549,0.64066 -0.41352,0.96818 -0.12079,0.31032 -0.26375,0.6108 -0.40844,0.91004 -0.11421,0.30456 -0.21744,0.61515 -0.35725,0.90884 -0.11154,0.28682 -0.23121,0.57403 -0.3197,0.86963 -0.0447,0.20971 -0.0255,0.10237 -0.0571,0.32217 0,0 -6.11796,-0.0797 -6.11796,-0.0797 l 0,0 c 0.0301,-0.26939 0.012,-0.13575 0.0546,-0.40092 0.0765,-0.34373 0.22335,-0.6519 0.31986,-0.98853 0.13237,-0.28652 0.27582,-0.56968 0.3573,-0.87715 0.10874,-0.30615 0.27059,-0.58857 0.41307,-0.87899 0.0572,-0.17731 0.14108,-0.33423 0.20604,-0.50607 0.0639,-0.1688 0.0726,-0.36479 0.20242,-0.50186 0.0577,-0.16086 0.13602,-0.27572 0.21128,-0.42224 0.0735,-0.14305 0.098,-0.31135 0.22862,-0.42085 0.13895,-0.31142 0.38411,-0.52772 0.54362,-0.82682 0.20351,-0.24568 0.46536,-0.44572 0.70529,-0.64953 0.15087,-0.31951 0.41291,-0.54656 0.56112,-0.86773 0.18114,-0.27445 0.32175,-0.58163 0.55489,-0.81172 0.0336,-0.0527 0.0671,-0.10533 0.10073,-0.15799 0.0356,-0.0382 0.0765,-0.072 0.10688,-0.11468 0.12697,-0.17817 0.21493,-0.40191 0.41191,-0.51618 0.14499,-0.19521 0.33636,-0.36136 0.50043,-0.52771 0.84454,-2.00476 -0.0932,0.15025 6.17798,0.34904 0.0772,0.002 0.0213,-0.16009 6.7e-4,-0.23588 -0.007,-0.0261 -0.0251,0.0504 -0.047,0.0659 -0.20315,0.14416 0.0779,-0.16895 -0.14739,0.11077 -0.0943,0.25851 -0.26125,0.45967 -0.17324,0.75111 0.0752,0.29079 0.22662,0.54449 0.35216,0.81514 0.1541,0.28797 0.27933,0.59173 0.42137,0.88595 0.15675,0.30589 0.29325,0.62181 0.47228,0.91602 0.12666,0.2897 0.27106,0.5706 0.40154,0.85857 0.11786,0.29736 0.23596,0.59744 0.38428,0.88 0.18124,0.31403 0.28447,0.66138 0.45225,0.98123 0.14129,0.30773 0.30545,0.60405 0.46126,0.90433 0.14606,0.32015 0.30644,0.63998 0.39713,0.98115 0.33187,2.20615 0.0894,0.26233 -6.11088,0.46655 -0.0387,9.8e-4 -0.0202,-0.0762 -0.0327,-0.11361 -0.043,-0.12975 -0.10793,-0.24828 -0.17561,-0.3661 -0.13109,-0.29203 -0.2832,-0.57414 -0.43427,-0.85578 -0.17803,-0.37246 -0.38085,-0.73287 -0.517,-1.12496 -0.15404,-0.42744 -0.29371,-0.86122 -0.3958,-1.30481 -0.12134,-0.41446 -0.27561,-0.81386 -0.44775,-1.20922 -0.277,-0.55976 -0.5777,-1.10791 -0.89723,-1.64362 0,0 6.10209,-0.28809 6.10209,-0.28809 z"
       inkscape:connector-curvature="0" />
    <path
       style="fill:#0053a8;fill-opacity:1;stroke:#000000;stroke-width:0;stroke-miterlimit:4;stroke-opacity:1;stroke-dasharray:none"
       id="path3811"
       d="m 166.02289,797.74601 c -0.0249,0.11503 -0.0543,0.22917 -0.0787,0.34437 -0.0105,0.0712 -0.0342,0.13884 -0.0469,0.20943 -0.0105,0.068 -0.007,0.13712 -0.0145,0.20542 -0.009,0.063 -0.0244,0.12417 -0.0441,0.18456 -0.0186,0.0568 -0.0463,0.11114 -0.0854,0.15606 -0.0293,0.0412 -0.0573,0.0832 -0.088,0.12345 -0.0247,0.0489 -0.0614,0.0895 -0.0878,0.13711 -0.0308,0.0443 -0.0503,0.0951 -0.082,0.1387 -0.0299,0.0451 -0.0452,0.0978 -0.0743,0.14362 -0.0281,0.0454 -0.0505,0.0942 -0.077,0.14049 -0.0287,0.0478 -0.0589,0.0944 -0.0874,0.14254 -0.0319,0.0405 -0.0592,0.085 -0.0816,0.13152 -0.0264,0.0467 -0.0574,0.0884 -0.0777,0.13828 -0.0241,0.0496 -0.0501,0.0985 -0.0791,0.14526 -0.024,0.0518 -0.0542,0.0992 -0.0854,0.14647 -0.0324,0.0427 -0.0719,0.0788 -0.10653,0.11951 -0.0414,0.0336 -0.0701,0.0817 -0.11573,0.10982 -0.0464,0.0419 -0.0999,0.0699 -0.15381,0.10012 -0.0504,0.0208 -0.0969,0.0476 -0.14493,0.0732 -0.26953,0.29637 -1.20872,0.34144 -1.1305,-0.10154 0.0138,-0.0627 0.0371,-0.12262 0.0526,-0.1849 0.0219,-0.07 0.0392,-0.1405 0.0479,-0.2134 0.0123,-0.064 0.029,-0.12669 0.0365,-0.19164 0.0138,-0.063 0.0265,-0.1264 0.0402,-0.18949 0.0212,-0.0582 0.0276,-0.11969 0.0388,-0.18018 0.0137,-0.0596 0.0291,-0.11835 0.0485,-0.17626 0.0159,-0.0576 0.0362,-0.11361 0.0534,-0.17083 0.0182,-0.0558 0.0429,-0.10852 0.0654,-0.16249 0.0221,-0.0503 0.0542,-0.0932 0.0891,-0.13467 0.0259,-0.0475 0.063,-0.0868 0.0894,-0.13388 0.0265,-0.0452 0.0585,-0.0857 0.0926,-0.12501 0.0294,-0.0457 0.0582,-0.0931 0.0955,-0.13252 0.0343,-0.0397 0.0682,-0.0812 0.1077,-0.11551 0.0242,-0.0281 0.0119,-0.016 0.0364,-0.0371 0,0 1.08041,0.0821 1.08041,0.0821 l 0,0 c -0.0223,0.0298 -0.009,0.0182 -0.0364,0.0369 -0.0307,0.0409 -0.0713,0.0739 -0.10735,0.10948 -0.0292,0.0413 -0.0682,0.0739 -0.0948,0.11763 -0.024,0.0506 -0.0651,0.0826 -0.0928,0.13026 -0.0187,0.0221 -0.0251,0.0492 -0.0436,0.0714 -0.005,0.006 -0.0117,0.008 -0.016,0.014 -0.0648,0.0847 0.0283,-0.0222 -0.0295,0.0426 -0.0234,0.0493 -0.064,0.0805 -0.0889,0.12813 -0.0308,0.0435 -0.044,0.0998 -0.0651,0.14846 -0.0134,0.0273 -0.0166,0.0556 -0.0263,0.0845 -0.006,0.0161 -0.0149,0.0305 -0.02,0.0467 -0.003,0.0107 -0.005,0.0221 -0.007,0.0331 -0.0161,0.0567 -0.038,0.11031 -0.0486,0.16877 -0.0186,0.0596 -0.013,0.12598 -0.0387,0.18434 -0.02,0.0547 -0.0173,0.11692 -0.0409,0.17133 -0.006,0.0653 -0.0166,0.13003 -0.0375,0.19244 -0.008,0.0769 -0.0217,0.15281 -0.0478,0.22567 -0.0131,0.0629 -0.0348,0.1227 -0.0497,0.18506 -0.12185,0.36361 -0.22297,0.0181 -1.08262,-0.004 -0.0105,-2.5e-4 0.0205,0.002 0.0299,-9.9e-4 0.008,-0.002 0.0136,-0.009 0.0205,-0.0141 0.0385,-0.0451 0.0928,-0.083 0.14889,-0.10012 0.0382,-0.0168 0.0193,-0.007 0.0561,-0.0308 0.0142,-0.006 0.0385,-0.005 0.0522,-0.0144 0.008,-0.006 0.0126,-0.0162 0.0205,-0.0224 0.006,-0.005 0.0143,-0.007 0.0215,-0.0107 0.0431,-0.0401 -0.001,-0.005 0.042,-0.0259 0.0273,-0.0134 0.0509,-0.0523 0.0728,-0.0736 0.0443,-0.031 -0.009,0.009 0.0362,-0.0365 0.0234,-0.0237 0.0513,-0.0429 0.0695,-0.072 0.0391,-0.03 0.0654,-0.0795 0.0843,-0.1247 0.0249,-0.047 0.0543,-0.091 0.0789,-0.13774 0.0159,-0.0267 0.0208,-0.0558 0.0351,-0.0833 0.0342,-0.066 -0.003,0.009 0.0299,-0.0379 0.006,-0.008 0.008,-0.0171 0.0129,-0.0258 0.0332,-0.0442 0.0484,-0.10103 0.0822,-0.1455 0.0387,-0.0347 0.0487,-0.089 0.0865,-0.12433 0.0249,-0.0496 0.0534,-0.0965 0.0772,-0.14641 0.005,-0.008 0.009,-0.0159 0.0139,-0.0239 0.005,-0.005 0.0105,-0.009 0.014,-0.0149 0.0209,-0.0342 0.0295,-0.0738 0.0466,-0.10994 0.0286,-0.0458 0.0637,-0.0853 0.082,-0.13826 0.0186,-0.0221 0.0249,-0.049 0.0431,-0.0713 0.005,-0.006 0.0116,-0.008 0.0157,-0.0141 0.0722,-0.0971 -0.0348,0.032 0.0286,-0.043 0.0234,-0.0525 0.0648,-0.0885 0.0887,-0.14042 0.0278,-0.0392 0.0656,-0.0689 0.0843,-0.11504 0.0158,-0.0561 0.0376,-0.10924 0.0444,-0.16786 0.0138,-0.0678 10e-4,-0.1391 0.0148,-0.20737 0.0116,-0.0737 0.0359,-0.14272 0.0511,-0.21533 0.0259,-0.1148 0.0649,-0.22649 0.0767,-0.34438 0,0 1.07928,0.024 1.07928,0.024 z"
       inkscape:connector-curvature="0" />
  </g>
</svg>
